<svg width="33" height="32" viewBox="0 0 24 24" fill="none" xmlns="http://www.w3.org/2000/svg">
  <path d="M12 2C10.8954 2 10 2.89543 10 4C10 4.82843 10.4 5.5 11 5.83V6H9C7.89543 6 7 6.89543 7 8C7 8.82843 7.4 9.5 8 9.83V10H6C4.89543 10 4 10.8954 4 12C4 12.8284 4.4 13.5 5 13.83V14H19V13.83C19.6 13.5 20 12.8284 20 12C20 10.8954 19.1046 10 18 10H16V9.83C16.6 9.5 17 8.82843 17 8C17 6.89543 16.1046 6 15 6H13V5.83C13.6 5.5 14 4.82843 14 4C14 2.89543 13.1046 2 12 2ZM12 16C10.8954 16 10 16.8954 10 18V20H8C6.89543 20 6 20.8954 6 22H18C18 20.8954 17.1046 20 16 20H14V18C14 16.8954 13.1046 16 12 16Z" fill="#32CD32"/>
</svg>
